<svg xmlns="http://www.w3.org/2000/svg" width="192" height="192" viewBox="0 0 192 192">
  <rect width="192" height="192" rx="32" fill="#4f46e5"/>
  <g transform="translate(40,32)">
    <rect x="0" y="0" width="112" height="8" rx="4" fill="white" opacity="0.9"/>
    <rect x="8" y="16" width="96" height="8" rx="4" fill="white" opacity="0.6"/>
    <rect x="8" y="32" width="96" height="8" rx="4" fill="white" opacity="0.6"/>
    <rect x="8" y="48" width="96" height="8" rx="4" fill="white" opacity="0.6"/>
    <rect x="8" y="72" width="44" height="56" rx="8" fill="white" opacity="0.85"/>
    <rect x="60" y="72" width="44" height="56" rx="8" fill="white" opacity="0.65"/>
    <rect x="16" y="82" width="28" height="6" rx="3" fill="#4f46e5"/>
    <rect x="16" y="94" width="20" height="6" rx="3" fill="#4f46e5" opacity="0.6"/>
    <rect x="16" y="106" width="24" height="6" rx="3" fill="#4f46e5" opacity="0.4"/>
    <rect x="68" y="82" width="28" height="6" rx="3" fill="#4f46e5" opacity="0.8"/>
    <rect x="68" y="94" width="20" height="6" rx="3" fill="#4f46e5" opacity="0.5"/>
  </g>
</svg>
